<?xml version="1.0" encoding="UTF-8"?>
<svg xmlns="http://www.w3.org/2000/svg" xmlns:xlink="http://www.w3.org/1999/xlink" width="100px" height="100px" viewBox="0 0 100 100" version="1.1">
<g id="surface1">
<path style=" stroke:none;fill-rule:nonzero;fill:rgb(100%,100%,100%);fill-opacity:1;" d="M 94.589844 50 C 94.589844 74.625 74.625 94.589844 50 94.589844 C 25.375 94.589844 5.410156 74.625 5.410156 50 C 5.410156 25.375 25.375 5.410156 50 5.410156 C 74.625 5.410156 94.589844 25.375 94.589844 50 Z M 94.589844 50 "/>
<path style=" stroke:none;fill-rule:nonzero;fill:rgb(20.392157%,36.470588%,61.568627%);fill-opacity:1;" d="M 50 0 C 22.386719 0 0 22.386719 0 50 C 0 77.613281 22.386719 100 50 100 C 77.613281 100 100 77.613281 100 50 C 100.082031 22.464844 77.824219 0.0820312 50.289062 0 Z M 50.847656 51.695312 L 45.640625 69.25 L 73.488281 69.25 C 73.859375 69.234375 74.222656 69.371094 74.492188 69.625 C 74.765625 69.878906 74.925781 70.234375 74.941406 70.605469 L 74.941406 71.066406 L 72.519531 79.417969 C 72.296875 80.234375 71.542969 80.785156 70.703125 80.75 L 28.085938 80.75 L 35.230469 56.417969 L 27.238281 58.835938 L 29.054688 53.269531 L 37.046875 50.847656 L 47.09375 16.707031 C 47.320312 15.898438 48.070312 15.347656 48.910156 15.375 L 59.683594 15.375 C 60.058594 15.363281 60.421875 15.496094 60.691406 15.753906 C 60.964844 16.007812 61.125 16.359375 61.136719 16.730469 L 61.136719 17.191406 L 52.664062 46.003906 L 60.652344 43.582031 L 58.957031 49.394531 Z M 50.847656 51.695312 "/>
</g>
</svg>
