<?xml version="1.0" encoding="UTF-8"?>
<svg xmlns="http://www.w3.org/2000/svg" xmlns:xlink="http://www.w3.org/1999/xlink" width="100px" height="100px" viewBox="0 0 100 100" version="1.1">
<g id="surface1">
<path style=" stroke:none;fill-rule:nonzero;fill:rgb(0%,0%,0%);fill-opacity:1;" d="M 0.574219 8.996094 C 0.796875 9.210938 7.5 15.839844 15.476562 23.730469 C 31.574219 39.65625 31.085938 39.171875 31.949219 39.894531 C 40.003906 46.640625 51.140625 48.328125 60.875 44.273438 C 63.660156 43.113281 66.175781 41.539062 68.519531 39.488281 C 69.109375 38.976562 89.691406 18.648438 97.351562 11.019531 L 99.78125 8.601562 L 85.355469 8.601562 L 75.691406 18.160156 C 70.375 23.414062 65.113281 28.621094 64 29.71875 C 62.886719 30.824219 61.730469 31.929688 61.433594 32.175781 C 58.675781 34.464844 55.601562 35.785156 52 36.234375 C 51.046875 36.351562 48.980469 36.351562 48 36.230469 C 45.25 35.894531 42.734375 35.015625 40.503906 33.605469 C 39.183594 32.769531 38.445312 32.144531 36.574219 30.300781 C 35.726562 29.453125 30.441406 24.230469 24.835938 18.683594 L 14.648438 8.601562 L 0.175781 8.601562 Z M 0.574219 8.996094 "/>
<path style=" stroke:none;fill-rule:nonzero;fill:rgb(0%,0%,0%);fill-opacity:1;" d="M 48.425781 53.398438 C 42.191406 53.769531 36.410156 56.101562 31.699219 60.128906 C 31.089844 60.648438 29.875 61.835938 25.851562 65.824219 C 24.488281 67.175781 18.125 73.476562 11.714844 79.820312 C 5.300781 86.164062 0.0507812 91.371094 0.0507812 91.378906 C 0.0507812 91.390625 3.296875 91.398438 7.265625 91.394531 L 14.476562 91.394531 L 24.699219 81.269531 C 37.089844 69.003906 38.109375 68.003906 38.875 67.394531 C 41.863281 65.003906 45.386719 63.675781 49.164062 63.503906 C 53.695312 63.300781 57.929688 64.726562 61.433594 67.625 C 61.730469 67.871094 62.921875 69.003906 64.074219 70.148438 C 65.230469 71.296875 70.535156 76.546875 75.859375 81.816406 L 85.550781 91.398438 L 92.75 91.398438 C 96.710938 91.398438 99.949219 91.390625 99.949219 91.378906 C 99.949219 91.355469 72.816406 64.488281 70.148438 61.875 C 69.421875 61.160156 68.546875 60.335938 68.199219 60.046875 C 63.738281 56.261719 58.378906 54.015625 52.5 53.476562 C 51.464844 53.378906 49.410156 53.34375 48.425781 53.398438 Z M 48.425781 53.398438 "/>
</g>
</svg>
